<svg width="198" height="99" viewBox="0 0 198 99" fill="none" xmlns="http://www.w3.org/2000/svg">
<path d="M8.65485e-06 -1.73097e-05C7.51828e-06 13.0008 2.56072 25.8744 7.53592 37.8856C12.5111 49.8969 19.8034 60.8106 28.9964 70.0036C38.1894 79.1966 49.1031 86.4888 61.1144 91.4641C73.1256 96.4393 85.9991 99 99 99C112.001 99 124.874 96.4393 136.886 91.4641C148.897 86.4889 159.811 79.1966 169.004 70.0036C178.197 60.8106 185.489 49.8969 190.464 37.8857C195.439 25.8744 198 13.0009 198 -7.62939e-06L99 -8.65485e-06L8.65485e-06 -1.73097e-05Z" fill="url(#paint0_linear_101_1442)"/>
<defs>
<linearGradient id="paint0_linear_101_1442" x1="99" y1="99" x2="99" y2="3.14686e-06" gradientUnits="userSpaceOnUse">
<stop stop-color="#6943BA"/>
<stop offset="1" stop-color="#FF8329"/>
</linearGradient>
</defs>
</svg>
