<svg width="182" height="50" viewBox="0 0 182 50" fill="none" xmlns="http://www.w3.org/2000/svg">
<path d="M71.716 33V14.8H79.204C80.348 14.8 81.3533 15.034 82.22 15.502C83.104 15.9527 83.7887 16.594 84.274 17.426C84.7767 18.258 85.028 19.246 85.028 20.39V20.754C85.028 21.8807 84.768 22.8687 84.248 23.718C83.7453 24.55 83.052 25.2 82.168 25.668C81.3013 26.1187 80.3133 26.344 79.204 26.344H75.148V33H71.716ZM75.148 23.224H78.866C79.6807 23.224 80.3393 22.9987 80.842 22.548C81.3447 22.0973 81.596 21.482 81.596 20.702V20.442C81.596 19.662 81.3447 19.0467 80.842 18.596C80.3393 18.1453 79.6807 17.92 78.866 17.92H75.148V23.224ZM94.4794 33.364C92.1914 33.364 90.3714 32.74 89.0194 31.492C87.6674 30.2267 86.9914 28.424 86.9914 26.084V21.716C86.9914 19.376 87.6674 17.582 89.0194 16.334C90.3714 15.0687 92.1914 14.436 94.4794 14.436C96.7674 14.436 98.5874 15.0687 99.9394 16.334C101.291 17.582 101.967 19.376 101.967 21.716V26.084C101.967 28.424 101.291 30.2267 99.9394 31.492C98.5874 32.74 96.7674 33.364 94.4794 33.364ZM94.4794 30.296C95.7621 30.296 96.7587 29.9233 97.4694 29.178C98.1801 28.4327 98.5354 27.436 98.5354 26.188V21.612C98.5354 20.364 98.1801 19.3673 97.4694 18.622C96.7587 17.8767 95.7621 17.504 94.4794 17.504C93.2141 17.504 92.2174 17.8767 91.4894 18.622C90.7787 19.3673 90.4234 20.364 90.4234 21.612V26.188C90.4234 27.436 90.7787 28.4327 91.4894 29.178C92.2174 29.9233 93.2141 30.296 94.4794 30.296ZM104.978 33V14.8H112.882C114.026 14.8 115.022 14.9993 115.872 15.398C116.721 15.7967 117.38 16.36 117.848 17.088C118.316 17.816 118.55 18.674 118.55 19.662V19.974C118.55 21.066 118.29 21.95 117.77 22.626C117.25 23.302 116.608 23.796 115.846 24.108V24.576C116.539 24.6107 117.076 24.8533 117.458 25.304C117.839 25.7373 118.03 26.318 118.03 27.046V33H114.598V27.54C114.598 27.124 114.485 26.786 114.26 26.526C114.052 26.266 113.696 26.136 113.194 26.136H108.41V33H104.978ZM108.41 23.016H112.518C113.332 23.016 113.965 22.7993 114.416 22.366C114.884 21.9153 115.118 21.326 115.118 20.598V20.338C115.118 19.61 114.892 19.0293 114.442 18.596C113.991 18.1453 113.35 17.92 112.518 17.92H108.41V23.016ZM125.313 33V17.92H120.009V14.8H134.049V17.92H128.745V33H125.313ZM136.386 33V14.8H147.826V17.92H139.818V22.314H147.202V25.434H139.818V33H136.386ZM157.194 33.364C154.906 33.364 153.086 32.74 151.734 31.492C150.382 30.2267 149.706 28.424 149.706 26.084V21.716C149.706 19.376 150.382 17.582 151.734 16.334C153.086 15.0687 154.906 14.436 157.194 14.436C159.482 14.436 161.302 15.0687 162.654 16.334C164.006 17.582 164.682 19.376 164.682 21.716V26.084C164.682 28.424 164.006 30.2267 162.654 31.492C161.302 32.74 159.482 33.364 157.194 33.364ZM157.194 30.296C158.477 30.296 159.474 29.9233 160.184 29.178C160.895 28.4327 161.25 27.436 161.25 26.188V21.612C161.25 20.364 160.895 19.3673 160.184 18.622C159.474 17.8767 158.477 17.504 157.194 17.504C155.929 17.504 154.932 17.8767 154.204 18.622C153.494 19.3673 153.138 20.364 153.138 21.612V26.188C153.138 27.436 153.494 28.4327 154.204 29.178C154.932 29.9233 155.929 30.296 157.194 30.296ZM171.636 33V26.734L165.448 14.8H169.27L173.118 22.6H173.586L177.434 14.8H181.256L175.068 26.734V33H171.636Z" fill="white"/>
<circle cx="25" cy="25" r="25" fill="#D9D9D9"/>
<circle cx="25" cy="25" r="25" fill="url(#paint0_linear_101_974)"/>
<circle cx="40" cy="25" r="19.5" fill="url(#paint1_linear_101_974)" stroke="#1A1F28" stroke-width="3"/>
<defs>
<linearGradient id="paint0_linear_101_974" x1="25" y1="0" x2="25" y2="50" gradientUnits="userSpaceOnUse">
<stop stop-color="#0D4BEC"/>
<stop offset="1" stop-color="#2AE480"/>
</linearGradient>
<linearGradient id="paint1_linear_101_974" x1="40" y1="7" x2="40" y2="43" gradientUnits="userSpaceOnUse">
<stop stop-color="#6943BA"/>
<stop offset="1" stop-color="#FF8329"/>
</linearGradient>
</defs>
</svg>
